<?xml version="1.0" ?>

<!-- Uploaded to: SVG Repo, www.svgrepo.com, Generator: SVG Repo Mixer Tools -->
<svg width="800px" height="800px" viewBox="0 0 120 120" id="Layer_1" version="1.1" xml:space="preserve" xmlns="http://www.w3.org/2000/svg" xmlns:xlink="http://www.w3.org/1999/xlink">

<style type="text/css">
	.st0{fill:#E9F6FF;}
	.st1{fill:#FFFFFF;}
	.st2{fill:#4675FF;}
</style>

<g>

<path class="st0" d="M103,94H17c-2.4,0-4.3-1.9-4.3-4.3V30.3c0-2.4,1.9-4.3,4.3-4.3H103c2.4,0,4.3,1.9,4.3,4.3v59.3   C107.3,92.1,105.3,94,103,94z"/>

<path class="st1" d="M65.5,83.8H26.9c-1.8,0-3.3-1.5-3.3-3.3V39.6c0-1.8,1.5-3.3,3.3-3.3h38.6c1.8,0,3.3,1.5,3.3,3.3v40.8   C68.8,82.3,67.3,83.8,65.5,83.8z"/>

<g>

<polygon class="st2" points="98.5,50.1 88.2,55.3 77.9,50.1 65.2,75.6 73.1,74.8 77.2,81.6 88.2,59.7 99.2,81.6 103.3,74.8     111.2,75.6   "/>

</g>

<g>

</g>

</g>

</svg>
